<svg aria-hidden="true" style="position: absolute; width: 0; height: 0; overflow: hidden;" version="1.1" xmlns="http://www.w3.org/2000/svg" xmlns:xlink="http://www.w3.org/1999/xlink">
<defs>
<symbol id="icon-cross" viewBox="0 0 32 32">
<path d="M10.578 10.579c0.39-0.391 1.024-0.391 1.414-0l4.008 4.006 4.008-4.006c0.391-0.39 1.024-0.39 1.414 0s0.39 1.024-0 1.414l-4.007 4.006 4.007 4.006c0.391 0.391 0.391 1.024 0 1.414s-1.024 0.391-1.414 0l-4.008-4.006-4.008 4.006c-0.391 0.391-1.024 0.39-1.414-0s-0.39-1.024 0-1.414l4.007-4.006-4.007-4.006c-0.391-0.39-0.391-1.024-0-1.414z"></path>
</symbol>
<symbol id="icon-accept" viewBox="0 0 32 32">
<path d="M24.040 10.626c0.187 0.188 0.292 0.442 0.292 0.707s-0.105 0.519-0.292 0.707l-9.333 9.333c-0.188 0.187-0.442 0.293-0.707 0.293s-0.519-0.105-0.707-0.293l-5.333-5.333c-0.098-0.091-0.177-0.202-0.232-0.325s-0.084-0.255-0.086-0.389c-0.002-0.134 0.022-0.268 0.073-0.392s0.125-0.238 0.22-0.333c0.095-0.095 0.208-0.17 0.333-0.22s0.258-0.075 0.392-0.073c0.134 0.002 0.267 0.032 0.389 0.086s0.233 0.133 0.325 0.232l4.627 4.627 8.627-8.627c0.187-0.187 0.442-0.292 0.707-0.292s0.519 0.105 0.707 0.292z"></path>
</symbol>
</defs>
</svg>
